<svg xmlns="http://www.w3.org/2000/svg" xmlns:xlink="http://www.w3.org/1999/xlink" width="500" zoomAndPan="magnify" viewBox="0 0 375 374.999991" height="500" preserveAspectRatio="xMidYMid meet" version="1.0"><defs><clipPath id="94e7926df5"><path d="M 6.761719 107.070312 L 368.261719 107.070312 L 368.261719 267.570312 L 6.761719 267.570312 Z M 6.761719 107.070312 " clip-rule="nonzero"/></clipPath></defs><g clip-path="url(#94e7926df5)"><path fill="#16a38c" d="M 287.910156 267.820312 L 87.085938 267.820312 C 42.722656 267.820312 6.761719 231.859375 6.761719 187.496094 C 6.761719 143.136719 42.722656 107.171875 87.085938 107.171875 L 287.910156 107.171875 C 332.269531 107.171875 368.230469 143.136719 368.230469 187.496094 C 368.230469 231.859375 332.269531 267.820312 287.910156 267.820312 " fill-opacity="1" fill-rule="nonzero"/></g><path fill="#ffffff" d="M 350.457031 187.496094 C 350.457031 222.039062 322.453125 250.042969 287.90625 250.042969 C 253.363281 250.042969 225.359375 222.039062 225.359375 187.496094 C 225.359375 152.953125 253.363281 124.949219 287.90625 124.949219 C 322.453125 124.949219 350.457031 152.953125 350.457031 187.496094 " fill-opacity="1" fill-rule="nonzero"/></svg>