<svg xmlns="http://www.w3.org/2000/svg" xmlns:xlink="http://www.w3.org/1999/xlink" width="500" zoomAndPan="magnify" viewBox="0 0 375 374.999991" height="500" preserveAspectRatio="xMidYMid meet" version="1.0"><defs><clipPath id="559a538896"><path d="M 6.898438 107.476562 L 368.121094 107.476562 L 368.121094 262.359375 L 6.898438 262.359375 Z M 6.898438 107.476562 " clip-rule="nonzero"/></clipPath></defs><g clip-path="url(#559a538896)"><path fill="#cccccc" d="M 290.714844 262.164062 L 84.304688 262.164062 C 41.554688 262.164062 6.898438 227.539062 6.898438 184.820312 C 6.898438 142.105469 41.554688 107.476562 84.304688 107.476562 L 290.714844 107.476562 C 333.464844 107.476562 368.121094 142.105469 368.121094 184.820312 C 368.121094 227.539062 333.464844 262.164062 290.714844 262.164062 " fill-opacity="1" fill-rule="nonzero"/></g><path fill="#ffffff" d="M 23.316406 184.820312 C 23.316406 151.164062 50.621094 123.882812 84.304688 123.882812 C 117.984375 123.882812 145.289062 151.164062 145.289062 184.820312 C 145.289062 218.472656 117.984375 245.757812 84.304688 245.757812 C 50.621094 245.757812 23.316406 218.472656 23.316406 184.820312 " fill-opacity="1" fill-rule="nonzero"/></svg>