<svg xmlns="http://www.w3.org/2000/svg" xmlns:xlink="http://www.w3.org/1999/xlink" width="500" zoomAndPan="magnify" viewBox="0 0 375 374.999991" height="500" preserveAspectRatio="xMidYMid meet" version="1.0"><defs><g/><clipPath id="d4018e142a"><path d="M 4.054688 4.054688 L 370.804688 4.054688 L 370.804688 370.804688 L 4.054688 370.804688 Z M 4.054688 4.054688 " clip-rule="nonzero"/></clipPath><clipPath id="ce310f092f"><path d="M 50 218 L 325 218 L 325 370.804688 L 50 370.804688 Z M 50 218 " clip-rule="nonzero"/></clipPath></defs><g clip-path="url(#d4018e142a)"><path fill="#b3b3b3" d="M 370.820312 187.4375 C 370.820312 234.355469 353.21875 277.140625 324.226562 309.570312 C 290.652344 347.164062 241.816406 370.820312 187.441406 370.820312 C 133.070312 370.820312 84.214844 347.164062 50.65625 309.570312 C 21.664062 277.140625 4.0625 234.355469 4.0625 187.4375 C 4.0625 86.164062 86.152344 4.058594 187.441406 4.058594 C 288.714844 4.058594 370.820312 86.164062 370.820312 187.4375 " fill-opacity="1" fill-rule="nonzero"/></g><path fill="#f2f2f2" d="M 187.441406 221.21875 C 220.675781 221.21875 250.949219 183.613281 250.949219 142.324219 C 250.949219 103.3125 243.40625 64.738281 187.441406 64.738281 C 131.472656 64.738281 123.921875 103.3125 123.921875 142.324219 C 123.921875 183.613281 154.199219 221.21875 187.441406 221.21875 " fill-opacity="1" fill-rule="nonzero"/><g clip-path="url(#ce310f092f)"><path fill="#f2f2f2" d="M 324.226562 309.570312 C 290.652344 347.164062 241.816406 370.820312 187.441406 370.820312 C 133.070312 370.820312 84.214844 347.164062 50.65625 309.570312 C 50.074219 286.921875 65.15625 234.445312 142.085938 218.292969 C 155.242188 231.722656 171.441406 239.320312 187.441406 239.320312 C 203.441406 239.320312 219.625 231.722656 232.78125 218.292969 C 309.726562 234.445312 324.792969 286.921875 324.226562 309.570312 " fill-opacity="1" fill-rule="nonzero"/></g><g fill="#000000" fill-opacity="1"><g transform="translate(187.346344, 169.716648)"><g><path d="M 0.15625 -0.203125 C 0.1875 -0.203125 0.210938 -0.191406 0.234375 -0.171875 C 0.253906 -0.148438 0.265625 -0.128906 0.265625 -0.109375 C 0.265625 -0.0664062 0.253906 -0.0351562 0.234375 -0.015625 C 0.210938 0.00390625 0.1875 0.015625 0.15625 0.015625 C 0.125 0.015625 0.0976562 0.00390625 0.078125 -0.015625 C 0.0546875 -0.0351562 0.046875 -0.0664062 0.046875 -0.109375 C 0.046875 -0.140625 0.0546875 -0.160156 0.078125 -0.171875 C 0.0976562 -0.191406 0.125 -0.203125 0.15625 -0.203125 Z M 0.15625 -0.203125 "/></g></g></g></svg>